<svg width="13" height="12" viewBox="0 0 13 12" fill="none" xmlns="http://www.w3.org/2000/svg">
<path d="M12.1016 12V13H13.1016V12H12.1016ZM7.48438 12H6.48438V13H7.48438V12ZM7.48438 11.4453L7.4204 10.4474L6.48438 10.5074V11.4453H7.48438ZM8.49219 11.2891L8.21502 10.3282L8.21002 10.3297L8.49219 11.2891ZM8.83594 10.6484L7.8984 10.9963L7.90278 11.0081L7.90746 11.0198L8.83594 10.6484ZM7.91406 8.16406L8.8516 7.81617L8.60962 7.16406H7.91406V8.16406ZM4.03125 8.16406V7.16406H3.35422L3.10277 7.79267L4.03125 8.16406ZM3.67188 9.11719L2.72689 8.79008L2.72406 8.79824L2.72138 8.80645L3.67188 9.11719ZM3.42969 9.86719L2.47676 9.56398L2.47457 9.57088L2.47248 9.5778L3.42969 9.86719ZM4.85156 11.4453H5.85156V10.4947L4.90213 10.4466L4.85156 11.4453ZM4.85156 12V13H5.85156V12H4.85156ZM0.679688 12H-0.320312V13H0.679688V12ZM0.679688 11.4453L0.602991 10.4483L-0.320312 10.5193V11.4453H0.679688ZM1.1875 11.3594L1.41236 12.3338L1.42415 12.331L1.43588 12.328L1.1875 11.3594ZM1.6875 11.1562L2.22655 11.9985L2.23685 11.9919L2.24697 11.9851L1.6875 11.1562ZM2.17188 10.7188L2.96857 11.3231L2.97348 11.3167L2.97828 11.3101L2.17188 10.7188ZM2.50781 10.0781L3.43506 10.4526L3.43605 10.4501L2.50781 10.0781ZM6.14844 0.757812V-0.242188H5.4641L5.2163 0.395712L6.14844 0.757812ZM6.77344 0.757812L7.70621 0.397353L7.45907 -0.242188H6.77344V0.757812ZM10.4688 10.3203L11.4021 9.96133L11.4015 9.95985L10.4688 10.3203ZM11.1484 11.1797L10.5881 12.008L10.608 12.0214L10.6285 12.0339L11.1484 11.1797ZM11.6172 11.3672L11.3563 12.3326L11.3685 12.3359L11.3808 12.3389L11.6172 11.3672ZM12.1016 11.4453H13.1016V10.4845L12.1415 10.4461L12.1016 11.4453ZM7.63281 7.46875V8.46875H9.09741L8.56418 7.10467L7.63281 7.46875ZM5.95312 3.17188L6.88449 2.8078L5.94437 0.402827L5.01947 2.81369L5.95312 3.17188ZM4.30469 7.46875L3.37104 7.11057L2.84999 8.46875H4.30469V7.46875ZM12.1016 11H7.48438V13H12.1016V11ZM8.48438 12V11.4453H6.48438V12H8.48438ZM7.54835 12.4433C7.99742 12.4145 8.41294 12.3547 8.77435 12.2484L8.21002 10.3297C8.04018 10.3796 7.78383 10.4241 7.4204 10.4474L7.54835 12.4433ZM8.76935 12.2499C8.94865 12.1982 9.17483 12.1166 9.37663 11.973C9.58204 11.8268 9.89844 11.5095 9.89844 11H7.89844C7.89844 10.6051 8.14713 10.3932 8.21712 10.3434C8.28351 10.2962 8.30655 10.3018 8.21503 10.3282L8.76935 12.2499ZM9.89844 11C9.89844 10.8848 9.88615 10.7734 9.87118 10.6761L7.89444 10.9802C7.89708 10.9973 7.89822 11.0078 7.89864 11.0124C7.89884 11.0146 7.8988 11.0147 7.89871 11.0128C7.89862 11.011 7.89844 11.0067 7.89844 11H9.89844ZM9.87118 10.6761C9.85165 10.5491 9.81888 10.4132 9.76441 10.277L7.90746 11.0198C7.89466 10.9878 7.89314 10.9718 7.89444 10.9802L9.87118 10.6761ZM9.77347 10.3005L8.8516 7.81617L6.97653 8.51195L7.8984 10.9963L9.77347 10.3005ZM7.91406 7.16406H4.03125V9.16406H7.91406V7.16406ZM3.10277 7.79267C2.95306 8.16696 2.82728 8.50007 2.72689 8.79008L4.61686 9.4443C4.70397 9.19264 4.81777 8.89034 4.95973 8.53545L3.10277 7.79267ZM2.72138 8.80645C2.63216 9.07935 2.55061 9.33189 2.47676 9.56398L4.38261 10.1704C4.4546 9.94415 4.5345 9.69669 4.62237 9.42793L2.72138 8.80645ZM2.47248 9.5778C2.39988 9.81791 2.34138 10.0397 2.30578 10.232L4.27234 10.5962C4.28883 10.5071 4.32407 10.3644 4.3869 10.1566L2.47248 9.5778ZM2.30578 10.232C2.2745 10.4009 2.25 10.5827 2.25 10.7578H4.25C4.25 10.7606 4.24992 10.7487 4.25337 10.7184C4.25671 10.689 4.26261 10.6487 4.27234 10.5962L2.30578 10.232ZM2.25 10.7578C2.25 11.6421 2.98682 12.0376 3.4125 12.1863L4.07187 10.2981C3.98258 10.2669 4.01136 10.2603 4.07447 10.3224C4.11076 10.3581 4.15786 10.4164 4.19484 10.4997C4.2327 10.5851 4.25 10.6745 4.25 10.7578H2.25ZM3.4125 12.1863C3.84543 12.3375 4.31146 12.4192 4.80099 12.444L4.90213 10.4466C4.56875 10.4297 4.2952 10.3761 4.07187 10.2981L3.4125 12.1863ZM3.85156 11.4453V12H5.85156V11.4453H3.85156ZM4.85156 11H0.679688V13H4.85156V11ZM1.67969 12V11.4453H-0.320312V12H1.67969ZM0.756384 12.4424C0.960595 12.4267 1.18332 12.3866 1.41236 12.3338L0.96264 10.385C0.785429 10.4259 0.669614 10.4431 0.602991 10.4483L0.756384 12.4424ZM1.43588 12.328C1.70784 12.2583 1.98127 12.1555 2.22655 11.9985L1.14845 10.314C1.13332 10.3237 1.07341 10.3563 0.939125 10.3907L1.43588 12.328ZM2.24697 11.9851C2.51836 11.8019 2.77014 11.5847 2.96857 11.3231L1.37518 10.1144C1.34445 10.1549 1.2733 10.2293 1.12803 10.3274L2.24697 11.9851ZM2.97828 11.3101C3.16007 11.0622 3.30859 10.7657 3.43505 10.4526L1.58057 9.70366C1.48828 9.93218 1.41284 10.0628 1.36547 10.1274L2.97828 11.3101ZM3.43605 10.4501C3.99507 9.05518 4.61109 7.48901 5.28404 5.75185L3.41909 5.0294C2.74829 6.76099 2.13514 8.31982 1.57958 9.70613L3.43605 10.4501ZM5.28404 5.75185C5.95583 4.01769 6.55467 2.47372 7.08058 1.11991L5.2163 0.395712C4.69012 1.75024 4.09104 3.29481 3.41909 5.0294L5.28404 5.75185ZM6.14844 1.75781H6.77344V-0.242188H6.14844V1.75781ZM5.84066 1.11827L9.53598 10.6808L11.4015 9.95985L7.70621 0.397353L5.84066 1.11827ZM9.5354 10.6793C9.63753 10.9448 9.7705 11.2061 9.95033 11.4332L11.5184 10.1918C11.5003 10.1689 11.4562 10.1021 11.4021 9.96133L9.5354 10.6793ZM9.95033 11.4332C10.1303 11.6605 10.3532 11.8491 10.5881 12.008L11.7087 10.3514C11.5895 10.2707 11.5364 10.2145 11.5184 10.1918L9.95033 11.4332ZM10.6285 12.0339C10.8551 12.1718 11.1076 12.2653 11.3563 12.3326L11.8781 10.4018C11.7414 10.3649 11.6814 10.3334 11.6684 10.3255L10.6285 12.0339ZM11.3808 12.3389C11.6083 12.3942 11.8404 12.4357 12.0616 12.4445L12.1415 10.4461C12.1023 10.4445 12.0115 10.4339 11.8535 10.3955L11.3808 12.3389ZM11.1016 11.4453V12H13.1016V11.4453H11.1016ZM8.56418 7.10467L6.88449 2.8078L5.02176 3.53595L6.70144 7.83283L8.56418 7.10467ZM5.01947 2.81369L3.37104 7.11057L5.23834 7.82693L6.88678 3.53006L5.01947 2.81369ZM4.30469 8.46875H7.63281V6.46875H4.30469V8.46875Z" fill="#727272"/>
</svg>
