<svg width="15" height="9" viewBox="0 0 15 9" fill="none" xmlns="http://www.w3.org/2000/svg">
<path fill-rule="evenodd" clip-rule="evenodd" d="M0.505 1H13.622C13.9 1 14.127 0.776 14.127 0.5C14.127 0.224 13.9 0 13.622 0H0.505C0.227 0 0 0.224 0 0.5C0 0.776 0.227 1 0.505 1ZM13.622 4.999H4.541C4.263 4.999 4.037 4.775 4.037 4.499C4.037 4.223 4.263 3.999 4.541 3.999H13.622C13.9 3.999 14.127 4.223 14.127 4.499C14.127 4.775 13.9 4.999 13.622 4.999ZM13.622 9H0.505C0.227 9 0 8.776 0 8.5C0 8.224 0.227 8 0.505 8H13.622C13.9 8 14.127 8.224 14.127 8.5C14.127 8.776 13.9 9 13.622 9Z" fill="black"/>
</svg>
