<svg width="15" height="15" viewBox="0 0 15 15" fill="none" xmlns="http://www.w3.org/2000/svg">
<path fill-rule="evenodd" clip-rule="evenodd" d="M7.699 7.003L13.864 13.168C14.055 13.36 14.055 13.672 13.864 13.864C13.672 14.056 13.36 14.056 13.168 13.864L7.004 7.699L0.839 13.864C0.647 14.056 0.335 14.056 0.144 13.864C-0.048 13.672 -0.048 13.36 0.144 13.168L6.309 7.003L0.144 0.84C-0.048 0.648 -0.048 0.336 0.144 0.144C0.335 -0.048 0.647 -0.048 0.839 0.144L7.004 6.308L13.168 0.144C13.36 -0.048 13.672 -0.048 13.864 0.144C14.055 0.336 14.055 0.648 13.864 0.84L7.699 7.003Z" fill="white"/>
</svg>
